<svg xmlns="http://www.w3.org/2000/svg" xmlns:xlink="http://www.w3.org/1999/xlink" id="Livello_1" x="0px" y="0px" viewBox="0 0 238 120.3" style="enable-background:new 0 0 238 120.3;" xml:space="preserve"><style type="text/css">	.st0{fill:#ED7269;}	.st1{fill:#FFFFFF;}	.st2{fill:#C8C7C7;}</style><g>	<path class="st0" d="M190.1,116.7c-0.3-0.2-0.6-0.5-0.9-0.6c-3-0.8-4.7-2.8-5.6-5.7c-1.7-5.6,1.8-10.5,7.1-11.3  c3.7-0.6,7,0.4,9.3,3.7c0.9,1.3,1.4,2.9,1.4,4.5s0,3.2-0.7,4.7c-1,1.9-2.5,3.2-4.4,3.9c-0.5,0.2-1.1,0.5-1.6,0.7  C193.1,116.7,191.6,116.7,190.1,116.7z"></path>	<path class="st1" d="M231,44.4c0,2.2,0,4.5,0,6.7c-0.1-0.2-0.3-0.5-0.4-0.7c0-1.1,0-2.2,0-3.4C230.8,46.2,230.9,45.3,231,44.4z"></path>	<path class="st1" d="M231,44.4c-0.1,0.9-0.3,1.7-0.4,2.6c-0.1-0.1-0.2-0.2-0.3-0.4c0-1,0-2,0-3c0.2,0.2,0.5,0.4,0.7,0.6  C231,44.3,231,44.4,231,44.4z"></path>	<path class="st1" d="M230.6,50.4c0.1,0.2,0.3,0.5,0.4,0.7c0,0.4,0,0.9,0,1.3c-0.2,0-0.3,0-0.5,0c-0.1-0.7-0.1-1.4-0.2-2  C230.4,50.4,230.5,50.4,230.6,50.4z"></path>	<path class="st1" d="M155.4,25.5c3.1-0.2,6,0.1,8.9,1.4c3.6,1.7,5.6,4.7,6.6,8.4c0.8,2.7,1,5.5,1,8.3c0,4.9-0.1,9.7,0.1,14.6  c0.1,2.1,0.6,3.4,3.8,3.8c0.6,0.1,0.8,0.3,0.8,0.8c0,2.5,0,5.1,0,7.8c-2,0.4-4.1,0.8-6.1,1c-1.2,0.2-2.4,0.2-3.6,0.2  c-3.1-0.1-5.8-1.1-8-3.3c-1.6-1.6-2.5-3.6-2.6-5.8c-0.2-5.6-0.2-11.3-0.2-16.9c0-2-0.3-3.8-1.4-5.6c-1.9-2.9-6.2-3.4-8.7-0.1  c-1.3,1.7-1.7,3.6-1.7,5.8c0,8,0,16.1,0,24.1c0,0.7-0.2,0.8-0.9,0.8c-4.8,0-9.6,0-14.4,0c-0.1,0-0.1-0.1-0.2-0.1  c0-3.9,0-7.9,0-11.8c0-4.6,0-9.2,0-13.9c0-2.1-0.6-4.1-2.2-5.6c-1.6-1.5-4.3-2-6.3-1.2c-2.4,1-3.7,3-4.2,5.4  c-0.2,1-0.2,2.1-0.2,3.2c0,7.7,0,15.4,0,23.1c0,0.6-0.1,0.9-0.8,0.9c-4.7,0-9.3,0-14,0c-0.8,0-1-0.2-1-1c0-9.6,0-19.2,0-28.8  c0-1.2-0.1-2.4-0.3-3.6c-0.3-2.1-1.7-2.5-3.2-2.7c-0.3,0-0.6-0.1-0.9-0.2c-0.1-0.1-0.1-0.1-0.2-0.2c0-2.5,0-5,0-7.4  c0-0.7,0.2-1.1,1-1.3c2.8-0.7,5.7-1.1,8.6-0.9c2.1,0.1,4.1,0.4,6,1.4c2.5,1.3,4.2,3.2,4.2,6.3c0.2-0.1,0.4-0.2,0.4-0.3  c2-4.1,5.4-6.1,9.8-6.7c3-0.4,5.9-0.2,8.7,0.6c3.5,1,6.1,3.2,7.8,6.6c0.7-0.8,1.4-1.7,2.1-2.4c2.5-2.6,5.5-4.1,9-4.8  c0.5-0.1,1-0.1,1.4-0.2C154.8,26,155.1,26,155.4,25.5z"></path>	<path class="st1" d="M230.3,50.4c0.1,0.7,0.1,1.4,0.2,2c0,0.2,0,0.5,0,0.7c0,0.1,0,0.1,0,0.2c-0.5,1.9-0.9,3.9-1.5,5.8  c-2.4,6.5-6.9,10.9-13.8,12.2c-4.4,0.8-8.8,0.6-12.6-2.3c-0.9-0.7-1.6-1.6-2.3-2.4c-0.1-0.1-0.2-0.3-0.5-0.6c0,9.3,0,18.4,0,27.5  c-5,0-9.8,0-14.7,0c0-0.9,0-1.8,0-2.7c0-17.2,0-34.3,0-51.5c0-0.8,0-1.6-0.2-2.3c-0.3-1.6-0.9-2.1-2.6-2.2c-0.7,0-1-0.2-0.9-1  c0.1-2.3,0.1-4.5,0-6.8c0-0.8,0.1-1.2,1-1.2c2.4-0.2,4.7-0.6,7.1-0.7c1.9-0.1,3.8,0.3,5.5,1.3s2.5,2.5,2.6,4.4  c0,0.2,0.1,0.4-0.1,0.2c1.1-1,2.2-1.9,3.4-2.9c2.5-2,5.3-3.1,8.5-3.3c3.3-0.2,6.4,0.3,9.4,1.5c2.2,0.9,4,2.2,5.7,3.8  c3.3,3.3,4.9,7.5,5.8,11.9c0.1,0.4,0,0.9,0,1.4c0,1,0,2,0,3C230.3,47.9,230.3,49.2,230.3,50.4z M215.3,48.6  c-0.2-1.1-0.2-2.3-0.5-3.4c-0.5-2-1.2-3.8-3.1-5c-1.4-0.9-3-1.1-4.6-1.2c-2.8-0.1-4.8,1.7-5.8,4c-1.3,3.2-1.4,6.5-0.5,9.8  c0.7,2.9,2.9,6.2,7.2,5.8c2.5-0.2,4.5-1.2,5.7-3.5C214.8,53.1,215.2,50.9,215.3,48.6z"></path>	<path class="st1" d="M70.3,26.5c5.3,0,10.4,0,15.7,0c0,0.3,0,0.6,0,0.8c0,10.4,0,20.8,0,31.2c0,2.4,0.8,3.3,3.2,3.6  c0.1,0,0.3,0,0.6,0.1c0,1.8,0,3.6,0,5.4c0,0.1,0,0.2,0,0.4c0,3,0,3.1-2.9,3.4c-2.4,0.3-4.9,0.5-7.3,0.6c-2,0.1-4-0.4-5.7-1.5  c-1.9-1.2-2.9-2.9-3.1-5.1c0-0.2,0-0.3-0.1-0.5c-0.9,1-1.7,1.9-2.6,2.8c-2.3,2.2-5,3.4-8.1,3.9c-2.7,0.4-5.4,0.2-8.1-0.6  c-4.3-1.2-7.2-3.9-8.7-8.1c-0.9-2.4-1.6-4.8-1.6-7.3c0-6.9-0.1-13.7-0.1-20.6c0-2.5,0-5.1,0-7.6c0-0.7,0.3-0.9,0.9-0.9  c2.4,0,4.7,0,7.1,0c2.3,0,4.6,0,6.9,0c0.9,0,1.2,0.2,1.2,1.1c0,8.6,0,17.3,0,25.9c0,2.5,1.9,5,4.2,5.6c2.2,0.5,4.2,0,5.9-1.5  c1.7-1.4,2.5-3.3,2.6-5.5c0.1-8.2,0.1-16.5,0.2-24.7C70.3,27.1,70.3,26.8,70.3,26.5z"></path>	<path class="st1" d="M30.9,26.6c0,1.3,0,2.6,0,3.8c0,15,0,30-0.1,45.1c0,3.6-0.2,7.3-1.6,10.7c-1.2,3-3.1,5.4-6,6.9  c-2.1,1.1-4.2,1.8-6.6,1.8c-2.2,0-4.5,0-6.7,0c-0.7,0-1.5-0.2-2.2-0.4C7.3,94.4,7,94,7,93.7c0-2.9,0.1-5.7,0.2-8.6  c0-0.7,0.2-1.4,0.3-2.1c1.6-0.2,3.2-0.3,4.7-0.5c1.7-0.3,2.5-1.5,2.8-3.1c0.2-1.3,0.3-2.6,0.4-3.9c0-15.9,0-31.8,0-47.8  c0-0.3,0-0.7,0-1C20.5,26.6,25.7,26.6,30.9,26.6z"></path>	<path class="st1" d="M13.9,12.4c-0.3-5.3,4-8.9,8.9-8.8c5.6,0.1,9.3,3,9.4,8.8c0.1,5.4-3.8,8.8-9,8.9C18,21.5,13.6,17.8,13.9,12.4z  "></path>	<path class="st1" d="M155.4,25.5c-0.3,0.5-0.5,0.5-0.8,0C154.8,25.5,155.1,25.5,155.4,25.5z"></path>	<path class="st1" d="M95.4,34.6c0.1,0.1,0.1,0.1,0.2,0.2C95.5,34.7,95.4,34.6,95.4,34.6z"></path>	<path class="st1" d="M230.5,53.4c0-0.1,0-0.1,0-0.2C230.5,53.2,230.5,53.3,230.5,53.4C230.6,53.4,230.5,53.4,230.5,53.4z"></path>	<path class="st2" d="M128.7,70.8c0.1,0,0.1,0.1,0.2,0.1C128.8,70.9,128.7,70.9,128.7,70.8z"></path>	<path class="st1" d="M230.3,50.4c0-1.2,0-2.5,0-3.7c0.1,0.1,0.2,0.2,0.3,0.4c0,1.1,0,2.2,0,3.4C230.5,50.4,230.4,50.4,230.3,50.4z"></path></g></svg>